<svg width="24" height="25" viewBox="0 0 24 25" fill="none" xmlns="http://www.w3.org/2000/svg">
<path d="M11.0002 8.43125L6.10019 13.3313C5.9002 13.5312 5.66686 13.6271 5.4002 13.6188C5.13353 13.6104 4.9002 13.5063 4.7002 13.3063C4.51686 13.1062 4.42103 12.8729 4.41269 12.6063C4.40436 12.3396 4.5002 12.1063 4.7002 11.9062L11.3002 5.30625C11.4002 5.20625 11.5085 5.13542 11.6252 5.09375C11.7419 5.05208 11.8669 5.03125 12.0002 5.03125C12.1335 5.03125 12.2585 5.05208 12.3752 5.09375C12.4919 5.13542 12.6002 5.20625 12.7002 5.30625L19.3002 11.9062C19.4835 12.0896 19.5752 12.3187 19.5752 12.5938C19.5752 12.8688 19.4835 13.1062 19.3002 13.3063C19.1002 13.5063 18.8627 13.6062 18.5877 13.6062C18.3127 13.6062 18.0752 13.5063 17.8752 13.3063L13.0002 8.43125L13.0002 19.6062C13.0002 19.8896 12.9044 20.1271 12.7127 20.3188C12.521 20.5104 12.2835 20.6062 12.0002 20.6062C11.7169 20.6062 11.4794 20.5104 11.2877 20.3188C11.096 20.1271 11.0002 19.8896 11.0002 19.6062L11.0002 8.43125Z" fill="#303030"/>
</svg>
